# xmcd CD database file
#
# Track frame offsets:
#	150
#	83622
#	172284
#	186016
#	199383
#	212580
#	226247
#	240459
#	253136
#	270313
#	289585
#	309542
#	324354
#	339221
#
# Disc length: 4749 seconds
#
# Revision: 0
# Processed by: cddbd v1.5.1PL2 Copyright (c) Steve Scherf et al.
# Submitted via: CDex 1.51
#
DISCID=bf128b0e
DTITLE=Ellis Larkins Trio - Manhatten at Midnight and more
DYEAR=1956
DGENRE=Jazz
TTITLE0=Manhatten at Midnight Suite
TTITLE1=Penthouse Suite
TTITLE2=Am I Blue
TTITLE3=Blue Prelude
TTITLE4=Blue and Sentimental
TTITLE5=Blue Moon
TTITLE6=Blue Again
TTITLE7=A Blues Serenade
TTITLE8=Interlude #1
TTITLE9=At Loose Ends
TTITLE10=Ode to Marie
TTITLE11=Interlude #2
TTITLE12=Time
TTITLE13=Four Bar Intro with Tag
EXTD=YEAR: 1956
EXTT0=
EXTT1=
EXTT2=
EXTT3=
EXTT4=
EXTT5=
EXTT6=
EXTT7=
EXTT8=
EXTT9=
EXTT10=
EXTT11=
EXTT12=
EXTT13=
PLAYORDER=
